HIERARCHY
ROOT Hips
{
	OFFSET 0.00000 0.00000 0.00000
	CHANNELS 6 Xposition Yposition Zposition Zrotation Yrotation Xrotation 
	JOINT LHipJoint
	{
		OFFSET 0 0 0
		CHANNELS 3 Zrotation Yrotation Xrotation
		JOINT LeftUpLeg
		{
			OFFSET 1.86795 -1.59681 0.65681
			CHANNELS 3 Zrotation Yrotation Xrotation
			JOINT LeftLeg
			{
				OFFSET 2.30491 -6.33268 0.00000
				CHANNELS 3 Zrotation Yrotation Xrotation
				JOINT LeftFoot
				{
					OFFSET 2.46780 -6.78022 0.00000
					CHANNELS 3 Zrotation Yrotation Xrotation
					JOINT LeftToeBase
					{
						OFFSET 0.07897 -0.21698 1.59652
						CHANNELS 3 Zrotation Yrotation Xrotation
						End Site
						{
							OFFSET 0.00000 -0.00000 0.82310
						}
					}
				}
			}
		}
	}
	JOINT RHipJoint
	{
		OFFSET 0 0 0
		CHANNELS 3 Zrotation Yrotation Xrotation
		JOINT RightUpLeg
		{
			OFFSET -1.93650 -1.59681 0.65681
			CHANNELS 3 Zrotation Yrotation Xrotation
			JOINT RightLeg
			{
				OFFSET -2.29410 -6.30299 0.00000
				CHANNELS 3 Zrotation Yrotation Xrotation
				JOINT RightFoot
				{
					OFFSET -2.48738 -6.83403 0.00000
					CHANNELS 3 Zrotation Yrotation Xrotation
					JOINT RightToeBase
					{
						OFFSET -0.08699 -0.23899 1.89395
						CHANNELS 3 Zrotation Yrotation Xrotation
						End Site
						{
							OFFSET -0.00000 -0.00000 0.96904
						}
					}
				}
			}
		}
	}
	JOINT LowerBack
	{
		OFFSET 0 0 0
		CHANNELS 3 Zrotation Yrotation Xrotation
		JOINT Spine
		{
			OFFSET 0.03629 1.99740 -0.07548
			CHANNELS 3 Zrotation Yrotation Xrotation
			JOINT Spine1
			{
				OFFSET 0.03970 1.94298 0.17218
				CHANNELS 3 Zrotation Yrotation Xrotation
				JOINT Neck
				{
					OFFSET 0 0 0
					CHANNELS 3 Zrotation Yrotation Xrotation
					JOINT Neck1
					{
						OFFSET -0.05054 1.79469 0.04241
						CHANNELS 3 Zrotation Yrotation Xrotation
						JOINT Head
						{
							OFFSET 0.05195 1.78475 -0.22133
							CHANNELS 3 Zrotation Yrotation Xrotation
							End Site
							{
								OFFSET 0.02420 1.80711 -0.07950
							}
						}
					}
				}
				JOINT LeftShoulder
				{
					OFFSET 0 0 0
					CHANNELS 3 Zrotation Yrotation Xrotation
					JOINT LeftArm
					{
						OFFSET 2.92134 1.19850 0.36056
						CHANNELS 3 Zrotation Yrotation Xrotation
						JOINT LeftForeArm
						{
							OFFSET 4.84137 -0.00000 0.00000
							CHANNELS 3 Zrotation Yrotation Xrotation
							JOINT LeftHand
							{
								OFFSET 3.24520 -0.00000 -0.00000
								CHANNELS 3 Zrotation Yrotation Xrotation
								JOINT LeftFingerBase
								{
									OFFSET 0 0 0
									CHANNELS 3 Zrotation Yrotation Xrotation
									JOINT LeftHandIndex1
									{
										OFFSET 0.52122 -0.00000 0.00000
										CHANNELS 3 Zrotation Yrotation Xrotation
										End Site
										{
											OFFSET 0.42022 -0.00000 0.00000
										}
									}
								}
								JOINT LThumb
								{
									OFFSET 0 0 0
									CHANNELS 3 Zrotation Yrotation Xrotation
									End Site
									{
										OFFSET 0.42664 -0.00000 0.42664
									}
								}
							}
						}
					}
				}
				JOINT RightShoulder
				{
					OFFSET 0 0 0
					CHANNELS 3 Zrotation Yrotation Xrotation
					JOINT RightArm
					{
						OFFSET -2.84327 1.20795 0.50191
						CHANNELS 3 Zrotation Yrotation Xrotation
						JOINT RightForeArm
						{
							OFFSET -4.72284 -0.00000 0.00000
							CHANNELS 3 Zrotation Yrotation Xrotation
							JOINT RightHand
							{
								OFFSET -3.23459 -0.00000 0.00000
								CHANNELS 3 Zrotation Yrotation Xrotation
								JOINT RightFingerBase
								{
									OFFSET 0 0 0
									CHANNELS 3 Zrotation Yrotation Xrotation
									JOINT RightHandIndex1
									{
										OFFSET -0.30742 -0.00000 0.00000
										CHANNELS 3 Zrotation Yrotation Xrotation
										End Site
										{
											OFFSET -0.24785 -0.00000 0.00000
										}
									}
								}
								JOINT RThumb
								{
									OFFSET 0 0 0
									CHANNELS 3 Zrotation Yrotation Xrotation
									End Site
									{
										OFFSET -0.25163 -0.00000 0.25163
									}
								}
							}
						}
					}
				}
			}
		}
	}
}
MOTION
Frames: 15
Frame Time: .0083333
6.6191 16.2733 -3.3888 -2.5598 -48.3169 -1.7620 0.0000 0.0000 0.0000 -24.1333 -2.3320 7.7216 2.9454 10.6061 30.9628 0.6091 6.9872 -18.9177 0.0201 0.9159 2.5175 0.0000 0.0000 0.0000 18.2019 26.8505 -6.7725 -1.3684 -7.4036 20.9167 0.0381 -11.6276 -16.0054 -0.4640 4.3693 -12.1180 -1.4909 -0.9084 -7.9300 2.4311 -1.3777 -11.6096 3.4059 -0.5810 -7.7100 -2.0107 2.9903 -1.1777 10.4031 2.6355 15.1331 3.6590 1.7092 4.5140 0.0000 0.0000 0.0000 -15.1353 1.5541 -39.4934 15.9621 -25.4692 -3.6296 -0.0000 0.0000 -13.4003 -60.7157 26.8269 -38.8242 -7.1250 0.0000 -0.0000 -65.6940 42.9376 7.1464 0.0000 0.0000 0.0000 15.0871 -3.9705 -31.0521 -15.6346 25.0226 -3.4899 0.0000 -0.0000 -66.8817 3.2324 3.1619 0.1785 7.1250 -0.0000 -0.0000 22.2961 -26.5683 10.7526
6.6264 16.2751 -3.4025 -2.5123 -48.4621 -1.8026 0.0000 0.0000 0.0000 -24.0974 -2.1984 7.4413 2.9899 10.6787 31.2037 0.5912 7.0100 -18.7444 0.0098 0.6397 1.7578 0.0000 0.0000 0.0000 18.1680 26.8809 -6.7756 -1.3470 -7.3478 20.7500 0.0383 -11.5894 -15.9469 -0.5026 4.5447 -12.6143 -1.5742 -0.8296 -7.8735 2.4468 -1.2666 -11.5189 3.4694 -0.5184 -7.6473 -2.0539 2.9552 -1.2883 10.4724 2.5972 14.9599 3.6846 1.6918 4.4804 0.0000 0.0000 0.0000 -15.2139 0.9091 -38.7267 16.1484 -25.7215 -3.7101 -0.0000 0.0000 -15.5307 -69.0582 20.2546 -42.1328 -7.1250 0.0000 -0.0000 -50.4488 27.7424 39.5945 0.0000 0.0000 0.0000 15.1584 -3.2167 -31.3878 -15.6180 25.0000 -3.4829 0.0000 -0.0000 -66.2735 13.1696 5.4628 1.2761 7.1250 -0.0000 -0.0000 28.5260 -24.0785 16.4748
6.6256 16.2774 -3.4035 -2.4259 -48.5644 -1.9907 0.0000 0.0000 0.0000 -24.1743 -2.0996 7.4647 3.0238 10.7336 31.3864 0.6216 6.8068 -18.9053 0.0245 1.0109 2.7787 0.0000 0.0000 0.0000 18.1644 26.7102 -6.6475 -1.3337 -7.3129 20.6457 0.0341 -11.5339 -15.9270 -0.5543 4.7690 -13.2510 -1.6043 -0.7746 -7.7840 2.4481 -1.1871 -11.3834 3.4865 -0.4767 -7.5520 -2.1396 2.9531 -1.5787 10.5388 2.5893 14.9968 3.7258 1.6964 4.5388 0.0000 0.0000 0.0000 -15.2590 0.7237 -37.6921 16.4361 -26.1083 -3.8358 -0.0000 0.0000 -18.2996 -76.8121 14.5498 -46.9930 -7.1250 0.0000 -0.0000 -42.9735 6.0829 61.5708 0.0000 0.0000 0.0000 15.2606 -2.5047 -32.3269 -15.5012 24.8396 -3.4337 0.0000 -0.0000 -64.4111 23.3362 8.2425 3.5392 7.1250 -0.0000 -0.0000 33.7995 -20.6796 24.2524
6.6242 16.2772 -3.4048 -2.5777 -48.6259 -1.9247 0.0000 0.0000 0.0000 -24.0724 -2.0618 7.4602 3.0512 10.7775 31.5331 0.6500 6.6608 -19.0889 0.0400 1.2916 3.5514 0.0000 0.0000 0.0000 18.3051 26.5412 -6.6011 -1.3255 -7.2913 20.5812 0.0561 -11.6637 -15.7936 -0.6776 5.2636 -14.6619 -1.4738 -0.7405 -7.7096 2.4996 -1.1412 -11.3480 3.4692 -0.4612 -7.5585 -2.2663 2.9848 -1.6693 10.5915 2.6270 15.0912 3.7689 1.7158 4.5768 0.0000 0.0000 0.0000 -15.1649 0.9084 -36.4875 16.5612 -26.2757 -3.8911 -0.0000 0.0000 -21.3513 -83.1213 9.7655 -54.5783 -7.1250 0.0000 -0.0000 -41.6177 -5.7835 66.8005 0.0000 0.0000 0.0000 15.2725 -2.0633 -33.0136 -15.3692 24.6579 -3.3785 0.0000 -0.0000 -62.8010 30.4204 10.2051 5.9392 7.1250 -0.0000 -0.0000 36.6757 -17.6398 31.0947
6.6261 16.2686 -3.4158 -2.7267 -48.6230 -1.8041 0.0000 0.0000 0.0000 -23.8963 -1.9574 7.3263 3.0716 10.8101 31.6419 0.6167 6.9269 -18.9497 0.0051 0.4615 1.2682 0.0000 0.0000 0.0000 18.4209 26.4435 -6.6226 -1.3180 -7.2712 20.5214 0.1153 -12.0888 -15.5532 -0.8472 5.8707 -16.4096 -1.4384 -0.7110 -7.4962 2.5630 -1.1000 -11.3786 3.5229 -0.4371 -7.7166 -2.4160 2.9834 -1.5712 10.6375 2.6358 15.0203 3.8051 1.7106 4.5337 -0.0000 -0.0000 0.0000 -15.0748 1.2340 -35.4196 16.6614 -26.4093 -3.9356 -0.0000 0.0000 -24.2637 -86.4659 5.2582 -56.0234 -7.1250 0.0000 -0.0000 -41.7765 -13.2174 69.9862 -0.0000 -0.0000 0.0000 15.2006 -2.0485 -33.3851 -15.3483 24.6291 -3.3698 0.0000 -0.0000 -62.5197 32.1951 11.3578 7.0682 7.1250 -0.0000 -0.0000 37.1070 -16.1394 33.4507
6.6277 16.2659 -3.4261 -2.7360 -48.5766 -1.7512 0.0000 0.0000 0.0000 -23.8307 -1.9270 7.1661 3.0911 10.8411 31.7458 0.6034 6.9954 -18.8631 0.0010 0.2013 0.5530 0.0000 0.0000 0.0000 18.4084 26.4323 -6.6969 -1.3157 -7.2651 20.5032 0.1858 -12.6238 -15.3240 -0.9712 6.2741 -17.5819 -1.5302 -0.7047 -7.2708 2.6070 -1.0861 -11.3761 3.6265 -0.4174 -7.8423 -2.4932 2.9893 -1.4177 10.6043 2.6792 14.7419 3.7994 1.7169 4.4190 0.0000 0.0000 0.0000 -15.1595 1.5136 -35.8216 16.8790 -26.6980 -4.0328 -0.0000 0.0000 -25.7841 -87.6485 3.6201 -56.9615 -7.1250 0.0000 -0.0000 -41.8500 -15.0198 70.4913 0.0000 0.0000 0.0000 15.1948 -2.3655 -33.9217 -15.4540 24.7748 -3.4139 0.0000 -0.0000 -63.4653 30.5336 11.9856 6.9833 7.1250 -0.0000 -0.0000 36.2653 -16.0006 32.2948
6.6279 16.2674 -3.4345 -2.8026 -48.5066 -1.5584 0.0000 0.0000 0.0000 -23.7440 -2.0300 6.9356 3.1121 10.8743 31.8571 0.6237 6.7916 -18.9150 0.0084 0.5915 1.6253 0.0000 0.0000 0.0000 18.3936 26.5126 -6.8577 -1.3163 -7.2669 20.5086 0.3186 -13.4790 -14.6503 -1.1134 6.7034 -18.8396 -1.5598 -0.6850 -7.2095 2.6420 -1.0544 -11.3142 3.6799 -0.3973 -7.8098 -2.6395 2.9895 -1.4204 10.6488 2.7121 14.4430 3.8318 1.7229 4.3226 -0.0000 -0.0000 0.0000 -15.2021 1.6754 -37.2637 16.9393 -26.7777 -4.0600 -0.0000 0.0000 -26.2002 -87.7220 3.5844 -57.5326 -7.1250 0.0000 -0.0000 -41.9162 -14.0751 70.6110 -0.0000 -0.0000 0.0000 15.2005 -3.1699 -34.2273 -15.6249 25.0095 -3.4859 0.0000 -0.0000 -65.5454 27.9940 11.1398 5.8639 7.1250 -0.0000 -0.0000 35.3564 -17.3196 29.5811
6.6273 16.2663 -3.4420 -2.6793 -48.4465 -1.5113 0.0000 0.0000 0.0000 -23.7668 -1.9658 6.6522 3.1326 10.9066 31.9657 0.6149 6.8340 -18.8558 0.0024 0.3183 0.8746 0.0000 0.0000 0.0000 18.2482 26.5754 -6.9222 -1.3015 -7.2273 20.3906 0.3962 -13.9704 -14.2413 -1.0908 6.6373 -18.6452 -1.6857 -0.6302 -7.1809 2.6034 -0.9761 -11.2184 3.7076 -0.3506 -7.7247 -2.5856 2.9318 -1.5799 10.5011 2.6622 14.3192 3.7753 1.6961 4.3200 0.0000 0.0000 0.0000 -15.0799 1.5004 -40.3149 16.6427 -26.3843 -3.9272 -0.0000 0.0000 -24.2790 -87.2380 4.3477 -57.5274 -7.1250 0.0000 -0.0000 -41.9737 -12.3668 70.5413 0.0000 0.0000 0.0000 15.2092 -4.3031 -34.7502 -15.7577 25.1911 -3.5422 0.0000 -0.0000 -67.4852 25.0564 8.6517 4.0228 7.1250 -0.0000 -0.0000 34.5818 -20.0687 25.7509
6.6292 16.2664 -3.4508 -2.6850 -48.3723 -1.4458 0.0000 0.0000 0.0000 -23.7139 -1.9295 6.4532 3.1525 10.9380 32.0711 0.6021 6.9549 -18.8169 0.0000 -0.0242 -0.0666 0.0000 0.0000 0.0000 18.2373 26.6814 -6.8616 -1.2777 -7.1635 20.2007 0.3277 -13.6863 -14.8940 -0.8457 5.8655 -16.3948 -1.7319 -0.6087 -6.9517 2.5946 -0.9422 -11.1201 3.7261 -0.3283 -7.7480 -2.3362 2.8768 -1.7042 10.1594 2.6310 14.1547 3.6248 1.6764 4.3054 0.0000 -0.0000 0.0000 -14.9148 1.7264 -43.9397 16.2829 -25.9027 -3.7687 -0.0000 0.0000 -20.7441 -86.6850 5.1440 -57.1367 -7.1250 0.0000 -0.0000 -41.9196 -11.4864 70.1511 0.0000 -0.0000 0.0000 15.2659 -5.3797 -36.0417 -15.7610 25.1956 -3.5436 0.0000 -0.0000 -67.9110 21.3975 6.7893 2.6522 7.1250 -0.0000 -0.0000 33.1305 -22.2170 22.0538
6.6320 16.2707 -3.4602 -3.1531 -48.2029 -0.9620 0.0000 0.0000 0.0000 -23.3667 -2.1650 6.2817 3.1613 10.9517 32.1173 0.5931 7.0991 -18.8383 0.0010 -0.1992 -0.5473 0.0000 0.0000 0.0000 18.5318 26.8446 -6.8814 -1.2621 -7.1213 20.0752 0.3059 -13.7685 -15.4163 -0.7036 5.3613 -14.9421 -1.4028 -0.6243 -6.7286 2.6443 -0.9609 -11.0242 3.5952 -0.3594 -7.7677 -2.2779 2.8816 -1.6930 10.0390 2.6904 13.6951 3.5693 1.6942 4.1642 -0.0000 0.0000 0.0000 -14.7266 2.9530 -45.3212 16.0920 -25.6452 -3.6857 -0.0000 0.0000 -18.9780 -85.7858 6.4642 -56.7956 -7.1250 0.0000 -0.0000 -41.7682 -9.8053 69.1129 -0.0000 0.0000 0.0000 15.3194 -6.8799 -36.2127 -15.7932 25.2394 -3.5573 0.0000 -0.0000 -68.5736 16.5755 6.4815 1.9244 7.1250 -0.0000 -0.0000 30.4020 -22.9393 18.9046
6.6310 16.2767 -3.4672 -3.3375 -48.0070 -0.5022 0.0000 0.0000 0.0000 -23.2202 -2.4338 5.9726 3.1613 10.9517 32.1172 0.5421 7.5441 -18.6630 0.0296 -1.1102 -3.0522 0.0000 0.0000 0.0000 18.5173 26.9062 -7.1292 -1.2474 -7.0814 19.9566 0.3203 -14.0001 -15.6146 -0.6797 5.2715 -14.6845 -1.2915 -0.6666 -6.6774 2.6389 -1.0187 -11.0392 3.5282 -0.3962 -7.8100 -2.2114 2.9105 -1.4830 9.9917 2.7748 13.1888 3.5315 1.7219 3.9726 -0.0000 0.0000 0.0000 -14.5569 4.5282 -45.7542 15.9938 -25.5123 -3.6433 -0.0000 0.0000 -17.9388 -81.5200 12.5676 -55.5807 -7.1250 0.0000 -0.0000 -42.0393 1.6164 62.8326 -0.0000 0.0000 0.0000 15.3969 -8.8514 -35.3766 -15.8907 25.3723 -3.5990 0.0000 -0.0000 -69.6737 11.5361 6.6012 1.3441 7.1250 -0.0000 -0.0000 27.2242 -23.1341 16.2002
6.6282 16.2841 -3.4711 -2.8939 -47.8909 -0.4879 0.0000 0.0000 0.0000 -23.5327 -2.6473 5.6651 3.1555 10.9427 32.0869 0.5088 7.7916 -18.5147 0.0550 -1.5140 -4.1644 0.0000 0.0000 0.0000 18.0189 26.8708 -7.4123 -1.2225 -7.0128 19.7532 0.2905 -13.8363 -15.7884 -0.7176 5.4133 -15.0911 -1.6354 -0.6495 -6.6324 2.5257 -0.9964 -11.0721 3.6032 -0.3616 -7.8732 -2.0184 2.8622 -1.1855 9.7501 2.7785 12.5674 3.4068 1.7016 3.7438 0.0000 0.0000 0.0000 -14.4792 6.0408 -46.3446 15.9369 -25.4351 -3.6188 -0.0000 0.0000 -16.4096 -76.7467 16.5054 -50.3406 -7.1250 0.0000 -0.0000 -44.1328 12.5113 56.0858 0.0000 0.0000 0.0000 15.5838 -10.8510 -35.9465 -15.8178 25.2730 -3.5678 0.0000 -0.0000 -69.0183 7.5067 6.8376 0.8988 7.1250 -0.0000 -0.0000 24.5372 -23.0678 14.2803
6.6258 16.2933 -3.4740 -2.7353 -47.7948 -0.1856 0.0000 0.0000 0.0000 -23.6217 -2.9102 5.3075 3.1323 10.9062 31.9640 0.5432 7.5477 -18.6782 0.0132 -0.7419 -2.0390 0.0000 0.0000 0.0000 17.7070 27.0050 -7.7637 -1.2011 -6.9533 19.5772 0.3371 -13.9918 -15.3242 -0.9077 6.0711 -16.9909 -1.7202 -0.5394 -6.7034 2.4740 -0.8455 -10.9610 3.5914 -0.2841 -7.7201 -2.1312 2.7637 -1.2908 9.5552 2.7352 11.8477 3.3523 1.6568 3.5499 -0.0000 -0.0000 0.0000 -14.5784 7.4777 -46.9891 15.9118 -25.4009 -3.6081 -0.0000 0.0000 -14.7222 -70.8781 20.3420 -45.0755 -7.1250 0.0000 -0.0000 -49.8518 26.7076 41.1208 -0.0000 -0.0000 0.0000 15.6548 -13.1602 -36.7032 -15.7175 25.1360 -3.5251 0.0000 -0.0000 -68.4080 3.6793 6.8421 0.4389 7.1250 -0.0000 -0.0000 21.9506 -23.1440 12.4694
6.6201 16.3047 -3.4755 -3.1731 -47.6165 0.4374 0.0000 0.0000 0.0000 -23.2625 -3.2269 5.1803 3.0875 10.8354 31.7268 0.6172 6.9968 -19.0113 0.0309 1.1345 3.1190 0.0000 0.0000 0.0000 17.9355 27.3068 -7.8999 -1.1928 -6.9303 19.5091 0.3809 -14.2707 -15.1304 -0.9598 6.2382 -17.4771 -1.4489 -0.5288 -6.6075 2.5978 -0.8247 -10.8545 3.5690 -0.2892 -7.6579 -2.2508 2.7957 -1.3698 9.1043 2.9090 10.9169 3.5824 1.6818 3.6540 0.0000 0.0000 0.0000 -14.7098 9.3596 -47.2020 15.8488 -25.3152 -3.5811 -0.0000 0.0000 -13.2787 -64.1527 24.2997 -40.3465 -7.1250 0.0000 -0.0000 -59.9351 38.6664 19.2667 0.0000 0.0000 0.0000 15.6134 -15.4894 -36.7273 -15.6695 25.0705 -3.5048 0.0000 -0.0000 -68.3633 -0.8886 6.2965 -0.0975 7.1250 -0.0000 -0.0000 18.8573 -23.6924 10.2359
6.6107 16.3143 -3.4741 -3.3463 -47.4353 0.5876 0.0000 0.0000 0.0000 -23.1771 -3.5553 5.4594 3.0351 10.7517 31.4469 0.6803 6.5662 -19.3307 0.2563 3.2573 8.9958 0.0000 0.0000 0.0000 18.1164 27.5373 -7.6996 -1.1886 -6.9185 19.4743 0.2721 -13.6467 -15.7361 -0.6858 5.2946 -14.7508 -1.2722 -0.5324 -6.3150 2.5412 -0.8260 -10.6788 3.4096 -0.3041 -7.6299 -2.1117 2.8184 -1.4512 9.0446 2.9818 10.3637 3.5192 1.7156 3.4728 0.0000 0.0000 0.0000 -14.5490 11.4621 -46.9867 15.6914 -25.1004 -3.5140 -0.0000 0.0000 -12.1217 -56.9572 28.6490 -36.3929 -7.1250 0.0000 -0.0000 -69.0304 45.3484 -1.2598 0.0000 0.0000 0.0000 16.0395 -17.6915 -37.7249 -15.5491 24.9055 -3.4539 0.0000 -0.0000 -67.4047 -5.7710 5.5429 -0.5593 7.1250 -0.0000 -0.0000 15.4602 -24.4026 7.9730
